<?xml version="1.0" encoding="UTF-8"?>
<svg id="Lag_1" xmlns="http://www.w3.org/2000/svg" xmlns:xlink="http://www.w3.org/1999/xlink" version="1.1" viewBox="0 0 77 82">
  <!-- Generator: Adobe Illustrator 29.1.0, SVG Export Plug-In . SVG Version: 2.1.0 Build 142)  -->
  <defs>
    <style>
      .st0, .st1, .st2, .st3, .st4, .st5 {
        stroke-miterlimit: 10;
      }

      .st0, .st1, .st2, .st4, .st5 {
        stroke: #fff;
      }

      .st0, .st3 {
        fill: none;
        font-family: AckorDemo-Regular, 'Ackor Demo';
        font-size: 71.9px;
      }

      .st1 {
        fill: url(#Ikke-navngivet_forløb_21);
      }

      .st6 {
        fill: url(#Ikke-navngivet_forløb_28);
      }

      .st7 {
        fill: url(#Ikke-navngivet_forløb_26);
      }

      .st8 {
        fill: url(#Ikke-navngivet_forløb_27);
      }

      .st9 {
        fill: url(#Ikke-navngivet_forløb_25);
      }

      .st10 {
        fill: url(#Ikke-navngivet_forløb_75);
      }

      .st11 {
        fill: url(#Ikke-navngivet_forløb_24);
      }

      .st12 {
        fill: url(#Ikke-navngivet_forløb_22);
      }

      .st13 {
        fill: url(#Ikke-navngivet_forløb_23);
      }

      .st14 {
        fill: url(#Ikke-navngivet_forløb_29);
      }

      .st2 {
        fill: url(#Ikke-navngivet_forløb_2);
      }

      .st15 {
        fill: url(#Ikke-navngivet_forløb_211);
      }

      .st16 {
        fill: url(#Ikke-navngivet_forløb_210);
      }

      .st17 {
        fill: #fff;
      }

      .st3 {
        stroke: #1d1d1b;
      }

      .st4 {
        fill: url(#Ikke-navngivet_forløb_212);
      }

      .st5 {
        fill: url(#Ikke-navngivet_forløb_213);
      }

      .st18 {
        fill: #f5f5f5;
      }
    </style>
    <linearGradient id="Ikke-navngivet_forløb_75" data-name="Ikke-navngivet forløb 75" x1="17.6" y1="42.5" x2="96.1" y2="42.5" gradientUnits="userSpaceOnUse">
      <stop offset="0" stop-color="#1d1d1b"/>
      <stop offset="0" stop-color="#413716"/>
      <stop offset="0" stop-color="#725c10"/>
      <stop offset="0" stop-color="#9c7b0b"/>
      <stop offset=".1" stop-color="#bf9407"/>
      <stop offset=".1" stop-color="#d9a804"/>
      <stop offset=".2" stop-color="#ecb601"/>
      <stop offset=".2" stop-color="#f8bf00"/>
      <stop offset=".2" stop-color="#fcc200"/>
      <stop offset=".3" stop-color="#f9b800"/>
      <stop offset=".3" stop-color="#fdc700"/>
      <stop offset=".3" stop-color="#f29431"/>
      <stop offset=".6" stop-color="#1d1d1b"/>
      <stop offset=".6" stop-color="#f08f34" stop-opacity=".8"/>
      <stop offset="1" stop-color="#e86031"/>
    </linearGradient>
    <linearGradient id="Ikke-navngivet_forløb_2" data-name="Ikke-navngivet forløb 2" x1="31.5" y1="52.3" x2="48.5" y2="52.3" gradientUnits="userSpaceOnUse">
      <stop offset="0" stop-color="#ffee25"/>
      <stop offset="0" stop-color="#fee820"/>
      <stop offset="0" stop-color="#fdd60e"/>
      <stop offset="0" stop-color="#fdca03"/>
      <stop offset=".1" stop-color="#fdc700"/>
      <stop offset=".2" stop-color="#f29431"/>
      <stop offset=".4" stop-color="#f08f34"/>
      <stop offset=".6" stop-color="#e86031"/>
      <stop offset="1" stop-color="#e2312d"/>
    </linearGradient>
    <linearGradient id="Ikke-navngivet_forløb_21" data-name="Ikke-navngivet forløb 2" x1="31.2" y1="50.5" x2="31.2" y2="50.5" xlink:href="#Ikke-navngivet_forløb_2"/>
    <linearGradient id="Ikke-navngivet_forløb_22" data-name="Ikke-navngivet forløb 2" x1="51.7" y1="29.6" x2="51.7" y2="29.6" xlink:href="#Ikke-navngivet_forløb_2"/>
    <linearGradient id="Ikke-navngivet_forløb_23" data-name="Ikke-navngivet forløb 2" x1="51.6" y1="27.1" x2="51.6" y2="27.1" xlink:href="#Ikke-navngivet_forløb_2"/>
    <linearGradient id="Ikke-navngivet_forløb_24" data-name="Ikke-navngivet forløb 2" x1="51.4" y1="24.4" x2="51.4" y2="24.4" xlink:href="#Ikke-navngivet_forløb_2"/>
    <linearGradient id="Ikke-navngivet_forløb_25" data-name="Ikke-navngivet forløb 2" x1="51.3" y1="25" x2="53.3" y2="25" xlink:href="#Ikke-navngivet_forløb_2"/>
    <linearGradient id="Ikke-navngivet_forløb_26" data-name="Ikke-navngivet forløb 2" x1="51.2" y1="27" x2="53.8" y2="27" xlink:href="#Ikke-navngivet_forløb_2"/>
    <linearGradient id="Ikke-navngivet_forløb_27" data-name="Ikke-navngivet forløb 2" x1="45.5" y1="33.5" x2="53.1" y2="33.5" xlink:href="#Ikke-navngivet_forløb_2"/>
    <linearGradient id="Ikke-navngivet_forløb_28" data-name="Ikke-navngivet forløb 2" x1="48.3" y1="19.4" x2="53.1" y2="19.4" xlink:href="#Ikke-navngivet_forløb_2"/>
    <linearGradient id="Ikke-navngivet_forløb_29" data-name="Ikke-navngivet forløb 2" x1="47.9" y1="17.3" x2="47.9" y2="17.3" xlink:href="#Ikke-navngivet_forløb_2"/>
    <linearGradient id="Ikke-navngivet_forløb_210" data-name="Ikke-navngivet forløb 2" x1="47" y1="16.9" x2="47" y2="16.9" xlink:href="#Ikke-navngivet_forløb_2"/>
    <linearGradient id="Ikke-navngivet_forløb_211" data-name="Ikke-navngivet forløb 2" x1="46.6" y1="16.8" x2="46.6" y2="16.8" xlink:href="#Ikke-navngivet_forløb_2"/>
    <linearGradient id="Ikke-navngivet_forløb_212" data-name="Ikke-navngivet forløb 2" x1="31.2" y1="53.7" x2="48.7" y2="53.7" xlink:href="#Ikke-navngivet_forløb_2"/>
    <linearGradient id="Ikke-navngivet_forløb_213" data-name="Ikke-navngivet forløb 2" x1="31.5" y1="53" x2="48.3" y2="53" xlink:href="#Ikke-navngivet_forløb_2"/>
  </defs>
  <g>
    <path class="st10" d="M56.7,26.2c0,7.3-9.1,9.9-14.5,10.9,6.6,1.2,10.8,10.1,12.6,19l.6,3.4c.9,4.6,2.5,5.5,4.9,5.5v.4h-11.8c0-10.9,1.3-28-7.7-28s-9,6.1-9.6,16.4v2.4c0,7.8,2.2,8.8,5.1,8.8v.4h-17.4v-.4c2.9,0,5.1-1,5.1-8.8v-31.9c0-7.8-2.2-8.8-5.1-8.8v-.4h17.4c10.4,0,20.4,3.2,20.4,11.2ZM49.3,26.2c0-8.1-2.8-10.9-13.1-10.9s-5.1,1-5.1,8.8v25c.8-6.2,3.2-12.2,9.6-12.2,4.8-.7,8.6-3,8.6-10.8Z"/>
    <text class="st3" transform="translate(18.1 65.3) scale(1 1)"><tspan x="0" y="0">R</tspan></text>
    <text class="st0" transform="translate(18.1 65.3) scale(1 1)"><tspan x="0" y="0">R</tspan></text>
  </g>
  <line class="st2" x1="31.5" y1="52.3" x2="48.5" y2="52.2"/>
  <line class="st1" x1="31.2" y1="47.2" x2="31.2" y2="53.8"/>
  <g>
    <path class="st12" d="M51.7,29.6"/>
    <path class="st17" d="M51.7,32.1c3.2,0,3.2-5,0-5s-3.2,5,0,5h0Z"/>
  </g>
  <g>
    <path class="st13" d="M51.6,27.1"/>
    <path class="st17" d="M51.6,29.6c3.2,0,3.2-5,0-5s-3.2,5,0,5h0Z"/>
  </g>
  <g>
    <path class="st11" d="M51.4,24.4"/>
    <path class="st17" d="M51.4,26.9c3.2,0,3.2-5,0-5s-3.2,5,0,5h0Z"/>
  </g>
  <g>
    <path class="st9" d="M51.3,22.8c.7,0,1.3.4,1.6,1s.4,1.3.4,1.9c0,.5,0,1.1-.4,1.6"/>
    <path class="st17" d="M51.3,25.3c0,0,.2,0,.3,0h-.7c.1,0,.3,0,.4,0l-.6-.3c.1,0,.3.1.4.2l-.5-.4c.1.1.3.2.4.4l-.4-.5c.1.2.2.3.3.5l-.3-.6c.1.3.2.6.2.9v-.7c0,.5,0,1,0,1.5v-.7c0,.2,0,.4,0,.6l.3-.6c0,.1-.1.2-.2.3-.4.5-.4,1.3-.3,1.9s.6,1.2,1.1,1.5,1.3.5,1.9.3l.6-.3c.4-.2.7-.5.9-.9.1-.2.2-.4.3-.6s.2-.4.2-.6c0-.4.2-.9.2-1.4s0-.5,0-.8c0-.5,0-1-.2-1.4s-.3-.9-.5-1.2-.4-.5-.6-.8-.1-.2-.2-.2c-.5-.5-1-.7-1.6-1s-.2,0-.3,0c-.3,0-.7-.1-1-.1-.7,0-1.3.3-1.8.7s-.8,1.1-.7,1.8.2,1.3.7,1.8,1.1.8,1.8.7h0Z"/>
  </g>
  <g>
    <path class="st7" d="M53.1,23.2c.4.9.6,1.8.6,2.8,0,.5,0,.9,0,1.4,0,.4,0,.8-.2,1.1-.1.3-.3.6-.5.9-.4.6-.8,1.1-1.4,1.4-.1,0-.3,0-.4,0"/>
    <path class="st17" d="M51,24.4h0c0,0-.2-.3-.3-.5.2.6.4,1.2.5,1.8v-.7c0,.9,0,1.8-.1,2.7v-.7c0,.3,0,.5-.1.7l.3-.6c-.2.5-.5.9-.8,1.3l.4-.5c-.2.3-.4.5-.7.7l.5-.4c-.1,0-.3.2-.4.2l.6-.3c0,0-.1,0-.2,0h.7c0,0,0,0,0,0h.7c0,0,0,0,0,0l1.1.6h0c-.4-.5-1.2-.8-1.8-.8s-1.3.3-1.8.7-.8,1.1-.7,1.8.3,1.2.7,1.8,1.2.8,1.9.8,1-.1,1.5-.4,1-.6,1.3-1c.8-.8,1.6-1.9,1.8-3.1s.3-2.2.2-3.2-.4-2.5-.9-3.7-1-1-1.5-1.1-1.4,0-1.9.3-1,.9-1.1,1.5,0,1.3.3,1.9h0Z"/>
  </g>
  <g>
    <path class="st8" d="M50.2,30.8c0,.6-.1,1.3-.5,1.9s-.8,1-1.3,1.5c-.8.9-1.8,1.7-3,1.9,1.2-.3,2.1-1.2,3.1-1.8.6-.3,1.3-.6,1.8-.9.9-.6,1.7-1.4,2.7-1.8,0,.5-.4,1-.8,1.3"/>
    <path class="st17" d="M48.7,31.2c.1,1.2-.7,2.1-1.5,2.9s-.7.8-1.2,1.1-.3.3-.5.4c.2-.1-.1,0-.1,0,0,0,.6-.2.3-.1v1c.8-.2,1.7-.6,2.5-1.2s.6-.4.9-.6.3-.2.5-.3-.1,0,0,0,.2-.1.3-.2c.8-.4,1.5-.7,2.2-1.2s.6-.5.9-.7.3-.2.4-.3.1,0,.2-.1c-.2.1.3-.1,0,0h-1.9c0,.4-.3.8-.7,1.1s.5.5.7.5c.7,0,1.4-.3,1.9-.7s.8-.9.9-1.5-1.7-.2-1.9,0c-.9.4-1.6.8-2.3,1.4s-.5.4-.8.6-.6.3-.9.5c-.7.3-1.4.7-2,1.2s-.6.4-.9.6-.1,0-.2.1c.1,0,0,0,0,0-.2,0,0,0,0,0,.2,0-.1,0-.2,0-.3,0-1.3.4-1.3.8s1,.3,1.2.2c1.8-.3,3.2-1.2,4.4-2.5s2.2-2.2,2-3.8-.4-.2-.5-.2c-.3,0-.7,0-1.1.1s-.7.2-1,.4-.4.2-.3.4h0Z"/>
  </g>
  <g>
    <path class="st6" d="M48.3,17.7c.4.5.8,1.1,1,1.7.2.5.3,1,.7,1.4,0-.7,0-1.4-.2-2.1.9.4,1.7,1,2.5,1.5.4.3.8.6,1,1"/>
    <path class="st18" d="M46.9,18.3c.3.3.5.6.7,1v-.2c.3.7.5,1.6,1,2.2s1.1.3,1.5.2.5-.2.7-.3.5-.4.5-.6c0-.8,0-1.6-.2-2.3l-2.6,1.1c.6.3,1.2.7,1.8,1.1s.3.2.4.3.1.1.2.2.2.2,0,0c.2.2.5.4.6.7v-.2c0,0,0,0,0,.1.3.6,1.1.5,1.7.4s.7-.2,1-.5.4-.4.3-.7c-.3-.8-1.1-1.2-1.7-1.6s-1.3-.9-2-1.2-1.2-.1-1.7,0-.4.2-.6.4-.4.4-.3.7c.2.5.3,1,.3,1.5v-.2c0,.2,0,.4,0,.6l2.8-.7c0-.1-.2-.2-.2-.3v.2c-.1-.5-.3-1-.5-1.5s-.6-1-1-1.5-.5-.3-.8-.3c-.4,0-.8,0-1.1.2s-1.2.7-.8,1.2h0Z"/>
  </g>
  <g>
    <path class="st14" d="M47.9,17.3"/>
    <path class="st17" d="M47.3,18c.5,0,1.6-.2,1.9-.7s-.3-.6-.7-.6-1.6.2-1.9.7.3.6.7.6h0Z"/>
  </g>
  <g>
    <path class="st16" d="M47,16.9"/>
    <path class="st17" d="M46.4,17.6c.5,0,1.6-.2,1.9-.7s-.3-.6-.7-.6-1.6.2-1.9.7.3.6.7.6h0Z"/>
  </g>
  <g>
    <path class="st15" d="M46.6,16.8"/>
    <path class="st17" d="M45.7,17.4c.6,0,1.5-.1,2-.5s.5-.6-.2-.6-1.5.1-2,.5-.5.6.2.6h0Z"/>
  </g>
  <line class="st4" x1="31.2" y1="53.8" x2="48.7" y2="53.6"/>
  <line class="st5" x1="31.5" y1="53" x2="48.3" y2="52.9"/>
</svg>