<?xml version="1.0" encoding="UTF-8"?>
<svg id="Lag_1" xmlns="http://www.w3.org/2000/svg" version="1.1" viewBox="0 0 1920 258">
  <!-- Generator: Adobe Illustrator 29.1.0, SVG Export Plug-In . SVG Version: 2.1.0 Build 142)  -->
  <defs>
    <style>
      .st0 {
        fill: #fff;
        stroke: #000;
      }

      .st0, .st1, .st2 {
        stroke-miterlimit: 10;
      }

      .st3 {
        fill: #f7931e;
      }

      .st1 {
        stroke: #f7931e;
      }

      .st1, .st4 {
        fill: #fff0dd;
      }

      .st1, .st2 {
        stroke-width: 2px;
      }

      .st2 {
        fill: none;
        stroke: #fff;
      }
    </style>
  </defs>
  <g>
    <rect class="st4" x="597" y="49" width="8" height="161"/>
    <path class="st3" d="M604,50v159h-6V50h6M606,48h-10v163h10V48h0Z"/>
  </g>
  <g>
    <rect class="st4" x="868" y="49" width="8" height="161"/>
    <path class="st3" d="M875,50v159h-6V50h6M877,48h-10v163h10V48h0Z"/>
  </g>
  <g>
    <rect class="st4" x="1033" y="49" width="8" height="161"/>
    <path class="st3" d="M1040,50v159h-6V50h6M1042,48h-10v163h10V48h0Z"/>
  </g>
  <g>
    <rect class="st4" x="1290" y="49" width="8" height="161"/>
    <path class="st3" d="M1297,50v159h-6V50h6M1299,48h-10v163h10V48h0Z"/>
  </g>
  <g>
    <rect class="st4" x="1413" y="49" width="8" height="161"/>
    <path class="st3" d="M1420,50v159h-6V50h6M1422,48h-10v163h10V48h0Z"/>
  </g>
  <g>
    <rect class="st4" x="1641" y="48" width="8" height="161"/>
    <path class="st3" d="M1648,49v159h-6V49h6M1650,47h-10v163h10V47h0Z"/>
  </g>
  <g>
    <rect class="st4" x="1785" y="48" width="8" height="161"/>
    <path class="st3" d="M1792,49v159h-6V49h6M1794,47h-10v163h10V47h0Z"/>
  </g>
  <g>
    <rect class="st4" x="434" y="49" width="8" height="161"/>
    <path class="st3" d="M441,50v159h-6V50h6M443,48h-10v163h10V48h0Z"/>
  </g>
  <g>
    <rect class="st4" x="260" y="48" width="8" height="161"/>
    <path class="st3" d="M267,49v159h-6V49h6M269,47h-10v163h10V47h0Z"/>
  </g>
  <g>
    <rect class="st4" x="38" y="48" width="8" height="161"/>
    <path class="st3" d="M45,49v159h-6V49h6M47,47h-10v163h10V47h0Z"/>
  </g>
  <path class="st0" d="M90,221"/>
  <rect class="st1" x="58.5" y="66.5" width="10" height="125"/>
  <rect class="st1" x="235.5" y="67.5" width="10" height="125"/>
  <rect class="st1" x="411.5" y="70.5" width="10" height="125"/>
  <rect class="st1" x="618.5" y="67.5" width="10" height="125"/>
  <rect class="st1" x="731.5" y="67.5" width="10" height="125"/>
  <rect class="st1" x="892.5" y="72.5" width="10" height="125"/>
  <rect class="st1" x="1160.5" y="72.5" width="10" height="125"/>
  <rect class="st1" x="1391.5" y="72.5" width="10" height="125"/>
  <rect class="st1" x="1664.5" y="67.5" width="10" height="125"/>
  <rect class="st1" x="1888.5" y="63.5" width="10" height="125"/>
  <rect class="st1" x="282.5" y="26.5" width="9" height="191"/>
  <rect class="st1" x="577.5" y="26.5" width="9" height="191"/>
  <rect class="st1" x="848.5" y="33.5" width="9" height="191"/>
  <rect class="st1" x="1050.5" y="28.5" width="9" height="191"/>
  <rect class="st1" x="1267.5" y="28.5" width="9" height="191"/>
  <rect class="st1" x="1616.5" y="28.5" width="9" height="191"/>
  <rect class="st1" x="1805.5" y="31.5" width="9" height="191"/>
  <rect class="st1" x="79.5" y="98.5" width="10" height="68"/>
  <rect class="st1" x="211.5" y="98.5" width="10" height="68"/>
  <rect class="st1" x="385.5" y="98.5" width="10" height="68"/>
  <rect class="st1" x="640.5" y="99.5" width="10" height="68"/>
  <rect class="st1" x="918.5" y="101.5" width="10" height="68"/>
  <rect class="st1" x="1180.5" y="96.5" width="10" height="68"/>
  <rect class="st1" x="1373.5" y="101.5" width="10" height="68"/>
  <rect class="st1" x="1685.5" y="96.5" width="10" height="68"/>
  <rect class="st1" x="1868.5" y="94.5" width="10" height="68"/>
  <rect class="st1" x="100.5" y="77.5" width="10" height="105"/>
  <rect class="st1" x="305.5" y="75.5" width="10" height="105"/>
  <rect class="st1" x="454.5" y="77.5" width="10" height="105"/>
  <rect class="st1" x="663.5" y="75.5" width="10" height="105"/>
  <rect class="st1" x="828.5" y="82.5" width="10" height="105"/>
  <rect class="st1" x="939.5" y="75.5" width="10" height="105"/>
  <rect class="st1" x="1139.5" y="82.5" width="10" height="105"/>
  <rect class="st1" x="1353.5" y="77.5" width="10" height="105"/>
  <rect class="st1" x="1433.5" y="78.5" width="10" height="105"/>
  <rect class="st1" x="1703.5" y="73.5" width="10" height="105"/>
  <rect class="st1" x="1849.5" y="71.5" width="10" height="105"/>
  <rect class="st1" x="1456.5" y="101.5" width="10" height="68"/>
  <rect class="st1" x="1331.5" y="100.5" width="10" height="68"/>
  <rect class="st1" x="1120.5" y="94.5" width="10" height="68"/>
  <rect class="st1" x="958.5" y="101.5" width="10" height="68"/>
  <rect class="st1" x="752.5" y="101.5" width="10" height="68"/>
  <rect class="st1" x="475.5" y="101.5" width="10" height="68"/>
  <rect class="st1" x="328.5" y="99.5" width="10" height="68"/>
  <rect class="st1" x="124.5" y="101.5" width="10" height="68"/>
  <rect class="st1" x="555.5" y="100.5" width="10" height="68"/>
  <rect class="st1" x="1722.5" y="95.5" width="10" height="68"/>
  <rect class="st1" x="1830.5" y="100.5" width="10" height="68"/>
  <rect class="st1" x="1589.5" y="67.5" width="10" height="125"/>
  <rect class="st1" x="1310.5" y="72.5" width="10" height="125"/>
  <rect class="st1" x="1069.5" y="67.5" width="10" height="125"/>
  <rect class="st1" x="980.5" y="68.5" width="10" height="125"/>
  <rect class="st1" x="772.5" y="66.5" width="10" height="125"/>
  <rect class="st1" x="535.5" y="70.5" width="10" height="125"/>
  <rect class="st1" x="190.5" y="65.5" width="10" height="125"/>
  <rect class="st1" x="15.5" y="70.5" width="10" height="125"/>
  <g>
    <rect class="st4" x="1247" y="48" width="8" height="161"/>
    <path class="st3" d="M1254,49v159h-6V49h6M1256,47h-10v163h10V47h0Z"/>
  </g>
  <g>
    <rect class="st4" x="1480" y="43" width="8" height="161"/>
    <path class="st3" d="M1487,44v159h-6V44h6M1489,42h-10v163h10V42h0Z"/>
  </g>
  <rect class="st1" x="1501.5" y="82.5" width="10" height="105"/>
  <line class="st2" x1="20" y1="74" x2="20" y2="191"/>
  <line class="st2" x1="42" y1="53" x2="42" y2="205"/>
  <line class="st2" x1="64" y1="70" x2="64" y2="188"/>
  <line class="st2" x1="85" y1="104" x2="85" y2="163"/>
  <line class="st2" x1="106" y1="82" x2="106" y2="179"/>
  <line class="st2" x1="130" y1="106" x2="130" y2="165"/>
  <line class="st2" x1="194" y1="70" x2="195" y2="186"/>
  <line class="st2" x1="216" y1="103" x2="216" y2="162"/>
  <line class="st2" x1="240" y1="71" x2="240" y2="189"/>
  <line class="st2" x1="264" y1="51" x2="264" y2="204"/>
  <line class="st2" x1="287" y1="30" x2="287" y2="214"/>
  <line class="st2" x1="311" y1="79" x2="311" y2="176"/>
  <line class="st2" x1="334" y1="104" x2="334" y2="164"/>
  <line class="st2" x1="389" y1="103" x2="390" y2="161"/>
  <line class="st2" x1="416" y1="75" x2="416" y2="192"/>
  <line class="st2" x1="438" y1="54" x2="438" y2="205"/>
  <line class="st2" x1="459" y1="82" x2="459" y2="178"/>
  <line class="st2" x1="480" y1="107" x2="480" y2="165"/>
  <line class="st2" x1="541" y1="75" x2="541" y2="193"/>
  <line class="st2" x1="561" y1="105" x2="561" y2="165"/>
  <line class="st2" x1="582" y1="31" x2="582" y2="213"/>
  <line class="st2" x1="601" y1="53" x2="601" y2="207"/>
  <line class="st2" x1="623" y1="72" x2="623" y2="188"/>
  <line class="st2" x1="645" y1="104" x2="645" y2="163"/>
  <line class="st2" x1="668" y1="80" x2="668" y2="176"/>
  <line class="st2" x1="736" y1="72" x2="736" y2="190"/>
  <line class="st2" x1="757" y1="108" x2="757" y2="165"/>
  <line class="st2" x1="777" y1="71" x2="777" y2="187"/>
  <line class="st2" x1="833" y1="87" x2="833" y2="184"/>
  <line class="st2" x1="853" y1="39" x2="853" y2="220"/>
  <line class="st2" x1="872" y1="53" x2="872" y2="205"/>
  <line class="st2" x1="898" y1="76" x2="898" y2="193"/>
  <line class="st2" x1="924" y1="106" x2="924" y2="165"/>
  <line class="st2" x1="945" y1="80" x2="945" y2="175"/>
  <line class="st2" x1="964" y1="107" x2="964" y2="165"/>
  <line class="st2" x1="985" y1="73" x2="985" y2="190"/>
  <line class="st2" x1="1037" y1="52" x2="1037" y2="206"/>
  <line class="st2" x1="1055" y1="32" x2="1055" y2="216"/>
  <line class="st2" x1="1074" y1="72" x2="1074" y2="189"/>
  <line class="st2" x1="1125" y1="100" x2="1125" y2="159"/>
  <line class="st2" x1="1145" y1="87" x2="1145" y2="182"/>
  <line class="st2" x1="1166" y1="77" x2="1166" y2="192"/>
  <line class="st2" x1="1186" y1="102" x2="1186" y2="160"/>
  <line class="st2" x1="1251" y1="52" x2="1251" y2="205"/>
  <line class="st2" x1="1272" y1="32" x2="1272" y2="216"/>
  <line class="st2" x1="1294" y1="53" x2="1294" y2="205"/>
  <line class="st2" x1="1316" y1="77" x2="1316" y2="193"/>
  <line class="st2" x1="1337" y1="105" x2="1337" y2="164"/>
  <line class="st2" x1="1358" y1="82" x2="1359" y2="178"/>
  <line class="st2" x1="1379" y1="105" x2="1379" y2="166"/>
  <line class="st2" x1="1396" y1="77" x2="1396" y2="193"/>
  <line class="st2" x1="1417" y1="53" x2="1417" y2="206"/>
  <line class="st2" x1="1439" y1="83" x2="1439" y2="179"/>
  <line class="st2" x1="1462" y1="106" x2="1462" y2="165"/>
  <line class="st2" x1="1484" y1="46" x2="1484" y2="200"/>
  <line class="st2" x1="1506" y1="87" x2="1506" y2="183"/>
  <line class="st2" x1="1594" y1="71" x2="1594" y2="188"/>
  <line class="st2" x1="1621" y1="32" x2="1621" y2="216"/>
  <line class="st2" x1="1645" y1="52" x2="1645" y2="205"/>
  <line class="st2" x1="1669" y1="71" x2="1669" y2="188"/>
  <line class="st2" x1="1690" y1="102" x2="1690" y2="161"/>
  <line class="st2" x1="1708" y1="79" x2="1708" y2="174"/>
  <line class="st2" x1="1727" y1="102" x2="1727" y2="161"/>
  <line class="st2" x1="1789" y1="51" x2="1789" y2="204"/>
  <line class="st2" x1="1810" y1="35" x2="1810" y2="219"/>
  <line class="st2" x1="1835" y1="106" x2="1835" y2="164"/>
  <line class="st2" x1="1854" y1="77" x2="1854" y2="172"/>
  <line class="st2" x1="1873" y1="101" x2="1873" y2="156"/>
  <line class="st2" x1="1893" y1="70" x2="1893" y2="184"/>
</svg>